<?xml version="1.0" standalone="no"?>
<!DOCTYPE svg PUBLIC "-//W3C//DTD SVG 20010904//EN"
 "http://www.w3.org/TR/2001/REC-SVG-20010904/DTD/svg10.dtd">
<svg version="1.0" xmlns="http://www.w3.org/2000/svg"
 width="1024.000000pt" height="1024.000000pt" viewBox="0 0 1024.000000 1024.000000"
 preserveAspectRatio="xMidYMid meet">
<metadata>
Created by potrace 1.14, written by Peter Selinger 2001-2017
</metadata>
<g transform="translate(0.000000,1024.000000) scale(0.100000,-0.100000)"
fill="#000000" stroke="none">
<path d="M4070 10225 c-30 -6 -95 -20 -145 -29 -150 -29 -479 -128 -667 -202
-211 -83 -490 -214 -663 -312 -290 -164 -494 -303 -803 -549 -114 -90 -528
-502 -643 -639 -365 -433 -630 -874 -868 -1441 -28 -68 -51 -125 -51 -128 0
-3 -25 -76 -55 -162 -31 -86 -65 -192 -76 -237 -12 -45 -37 -146 -57 -226
l-36 -145 -3 -925 c-4 -955 -3 -986 38 -1193 100 -508 315 -1049 621 -1561 99
-165 232 -361 312 -461 18 -22 44 -57 57 -77 45 -66 271 -319 407 -455 272
-272 502 -459 812 -664 217 -143 481 -293 643 -365 45 -20 111 -50 147 -66
273 -129 748 -280 1050 -334 286 -51 230 -49 985 -49 752 0 744 0 1005 51 308
60 809 221 1053 339 41 19 78 35 82 35 8 0 252 122 320 160 129 72 202 115
220 127 11 7 88 58 171 112 403 264 749 569 1095 966 57 66 118 138 135 160
70 91 216 297 286 405 68 103 94 147 177 293 64 114 179 347 256 522 57 127
158 423 227 660 110 384 137 650 138 1365 0 492 -3 535 -49 852 -73 499 -338
1191 -660 1727 -141 234 -219 344 -446 632 -190 241 -604 647 -836 820 -25 19
-81 61 -124 93 -235 178 -624 410 -865 516 -63 28 -134 60 -157 71 -24 10 -45
19 -48 19 -2 0 -28 11 -57 24 -165 74 -558 197 -790 246 l-187 40 -948 -1
c-712 -1 -962 -4 -1003 -14z m792 -1542 c-59 -71 -137 -216 -174 -323 l-33
-95 0 -1570 0 -1570 41 -85 c50 -103 130 -189 210 -226 68 -31 172 -44 249
-32 103 16 160 55 466 316 37 32 149 127 250 212 163 136 616 526 629 540 3 3
37 32 75 65 310 265 348 303 392 392 98 199 23 406 -182 499 -51 24 -66 26
-149 22 -130 -5 -154 -20 -498 -308 -83 -69 -194 -161 -248 -205 -124 -102
-271 -224 -335 -279 l-50 -43 0 1131 0 1131 -32 95 c-18 52 -48 120 -67 150
-20 30 -43 69 -52 85 -9 17 -32 50 -52 75 -20 25 -39 50 -44 57 -17 22 337 -6
527 -43 143 -28 438 -118 610 -186 504 -199 943 -504 1343 -933 222 -238 432
-544 566 -828 134 -281 216 -522 285 -842 27 -121 61 -364 61 -428 l0 -52 -20
32 c-53 87 -181 187 -301 233 -422 162 -1009 103 -1250 -127 -83 -79 -111
-138 -117 -241 -4 -77 -2 -87 27 -146 73 -148 238 -248 500 -303 108 -22 151
-26 301 -26 207 0 326 17 480 69 173 59 261 115 331 210 22 30 45 54 51 54 18
0 2 -410 -23 -571 -22 -145 -25 -162 -70 -349 -30 -122 -70 -255 -89 -295 -5
-11 -23 -56 -39 -100 -129 -351 -330 -688 -599 -1008 -140 -166 -230 -259
-382 -396 -448 -402 -1041 -705 -1615 -825 -218 -46 -565 -88 -565 -68 0 5 22
39 49 75 94 128 154 270 182 431 17 103 6 369 -20 475 -45 179 -158 332 -271
365 -115 34 -215 29 -305 -17 -84 -42 -173 -170 -221 -317 -28 -83 -28 -91
-29 -310 0 -201 2 -233 22 -300 42 -147 102 -266 176 -347 l49 -53 -84 0
c-178 0 -561 69 -774 139 -332 109 -494 180 -774 339 -67 38 -242 156 -347
234 -261 192 -516 451 -759 768 -139 181 -303 476 -407 730 -101 245 -194 594
-226 845 -19 151 -40 535 -29 535 3 0 22 -27 42 -59 73 -119 183 -180 339
-189 55 -3 105 0 135 8 123 34 229 117 280 220 24 48 27 67 27 150 0 117 -20
166 -97 243 -97 96 -210 135 -360 124 -134 -9 -251 -78 -327 -194 l-31 -46 0
34 c0 56 38 345 55 422 65 286 128 500 198 672 50 122 123 276 163 345 14 25
39 70 56 100 43 77 148 235 208 311 27 35 66 86 87 113 107 140 382 413 553
551 380 305 744 494 1267 659 214 67 522 118 756 125 l49 1 -40 -47z"/>
<path d="M9920 80 l0 -80 160 0 160 0 0 80 0 80 -160 0 -160 0 0 -80z"/>
</g>
</svg>
